<?xml version="1.0" standalone="no"?>
<!DOCTYPE svg PUBLIC "-//W3C//DTD SVG 20010904//EN"
 "http://www.w3.org/TR/2001/REC-SVG-20010904/DTD/svg10.dtd">
<svg version="1.0" xmlns="http://www.w3.org/2000/svg"
 width="700.000000pt" height="700.000000pt" viewBox="0 0 700.000000 700.000000"
 preserveAspectRatio="xMidYMid meet">
<metadata>
Created by potrace 1.14, written by Peter Selinger 2001-2017
</metadata>
<g transform="translate(0.000000,700.000000) scale(0.100000,-0.100000)"
fill="#000000" stroke="none">
<path d="M230 6982 c-52 -28 -80 -75 -80 -136 -1 -28 -1 -1555 -1 -3393 0
-3003 1 -3344 15 -3371 9 -17 30 -41 48 -54 32 -22 39 -23 253 -23 200 0 223
2 248 19 49 33 61 70 67 198 6 129 16 155 79 192 28 16 56 19 214 20 196 2
239 -4 276 -37 38 -35 50 -76 51 -183 3 -116 20 -159 80 -193 l38 -21 1979 0
1979 0 41 27 c23 14 47 38 54 52 11 21 18 108 19 226 0 12 12 39 27 62 39 61
73 68 296 67 211 -1 234 -8 274 -80 19 -33 23 -54 23 -137 0 -114 13 -154 61
-188 33 -24 38 -24 259 -24 221 0 226 0 259 24 69 49 63 -259 63 3478 0 3277
0 3383 -18 3414 -11 18 -32 41 -47 53 -27 20 -43 21 -245 24 -197 2 -220 1
-252 -16 -67 -37 -74 -57 -80 -221 -5 -142 -7 -150 -33 -184 -40 -53 -75 -60
-288 -61 -167 0 -189 2 -220 20 -55 32 -79 77 -80 148 -1 185 -4 211 -27 248
-46 74 124 68 -2072 68 -1547 0 -1975 -3 -1997 -12 -74 -33 -90 -73 -92 -226
-2 -125 -9 -163 -39 -196 -41 -44 -67 -49 -273 -49 -176 -1 -199 1 -229 19
-67 39 -74 60 -80 217 -5 155 -15 188 -67 223 -25 17 -51 19 -238 22 -190 3
-213 1 -245 -16z m4627 -639 c44 -22 72 -57 81 -104 4 -19 7 -311 7 -649 l-1
-615 -25 -37 c-50 -77 63 -71 -1427 -71 l-1332 0 -38 30 c-69 56 -66 21 -66
718 0 609 0 632 19 664 34 57 66 74 153 81 42 3 643 4 1334 3 1200 -1 1259 -2
1295 -20z m-3548 -569 c43 -18 78 -58 85 -98 6 -34 8 -122 7 -292 -1 -98 -4
-115 -24 -144 -45 -68 -66 -73 -286 -73 -218 0 -239 5 -283 65 -22 31 -23 42
-26 231 -3 185 -2 201 18 242 36 74 66 83 288 83 137 0 196 -4 221 -14z m4827
-10 c68 -50 69 -54 69 -287 0 -237 -2 -245 -72 -289 -34 -20 -48 -21 -232 -21
-216 -1 -239 5 -283 63 -29 40 -28 35 -29 259 l0 194 27 38 c15 22 27 39 28
39 0 0 19 7 41 15 30 10 87 13 232 12 176 -2 194 -4 219 -23z m-4829 -1329
c39 -16 70 -47 84 -83 5 -12 9 -108 9 -213 1 -214 -6 -244 -69 -286 -32 -22
-43 -23 -233 -23 -222 0 -249 6 -289 61 -23 33 -24 41 -27 234 -4 232 3 259
72 300 40 24 47 25 229 25 145 0 196 -3 224 -15z m4819 -6 c31 -15 48 -32 63
-63 19 -38 21 -61 21 -224 0 -226 -14 -271 -97 -303 -40 -15 -405 -14 -435 2
-83 42 -90 67 -90 299 1 216 6 240 59 278 40 28 50 30 252 31 167 1 189 -1
227 -20z m-1270 -199 c26 -11 50 -32 64 -56 l24 -38 1 -615 c1 -461 -2 -627
-11 -660 -14 -48 -61 -96 -102 -104 -15 -3 -619 -5 -1342 -5 -1435 0 -1345 -4
-1398 56 -12 14 -26 37 -29 51 -4 14 -7 307 -7 652 0 609 0 626 20 660 11 18
37 43 58 55 l37 21 1322 1 c1247 0 1324 -1 1363 -18z m-3543 -1135 c19 -8 46
-29 59 -47 21 -30 23 -47 28 -173 7 -195 -1 -284 -28 -322 -40 -56 -69 -63
-280 -63 -105 0 -202 4 -216 10 -43 16 -84 68 -91 114 -4 23 -5 123 -3 222 3
201 9 218 77 254 32 17 59 19 227 20 147 0 200 -3 227 -15z m4829 -8 c15 -10
36 -38 48 -62 19 -39 21 -59 20 -231 -2 -220 -10 -248 -86 -285 -40 -19 -58
-20 -243 -17 -185 3 -202 5 -228 24 -59 44 -63 63 -65 281 -1 210 4 234 49
275 37 34 67 37 273 35 180 -2 208 -4 232 -20z m-1276 -976 c82 -46 77 -6 78
-710 1 -648 0 -668 -41 -713 -48 -53 29 -50 -1400 -50 -1257 1 -1326 2 -1360
19 -44 22 -72 57 -82 104 -3 19 -6 309 -6 644 1 553 3 613 18 645 20 42 66 72
122 80 22 3 623 5 1335 4 l1296 0 40 -23z m-3544 -358 c17 -10 40 -31 52 -46
20 -26 21 -43 24 -235 3 -240 -2 -260 -78 -299 -41 -21 -57 -23 -230 -23 -222
0 -253 9 -289 82 -19 41 -21 61 -21 234 0 301 11 311 347 307 138 -2 169 -5
195 -20z m4810 -1 c18 -10 43 -36 56 -58 22 -38 22 -47 20 -241 -3 -186 -5
-204 -24 -229 -49 -67 -56 -69 -274 -72 -171 -3 -203 -1 -232 14 -83 42 -89
61 -90 294 0 177 2 203 18 231 45 76 86 86 346 81 121 -2 153 -5 180 -20z"/>
</g>
</svg>
